<svg width="802" height="518" viewBox="0 0 802 518" fill="none" xmlns="http://www.w3.org/2000/svg">
<path d="M563.5 58.866C562.833 58.4811 562.833 57.5189 563.5 57.134L605.5 32.8853C606.167 32.5004 607 32.9815 607 33.7513V82.2487C607 83.0185 606.167 83.4996 605.5 83.1147L563.5 58.866Z" fill="#757575"/>
<path d="M792 13H612C606.477 13 602 17.4772 602 23V74C602 79.5229 606.477 84 612 84H792C797.523 84 802 79.5229 802 74V23C802 17.4772 797.523 13 792 13Z" fill="#757575"/>
<path d="M265.119 466.031C265.119 479.437 254.244 490.297 240.853 490.297H189.822C176.416 490.297 165.556 479.438 165.556 466.031V454.828C165.556 441.422 176.415 430.562 189.822 430.562H240.853C254.244 430.562 265.119 441.421 265.119 454.828V466.031Z" fill="#4B4B4B"/>
<path d="M42.9 371.688H38.634C25.243 371.688 14.368 382.563 14.368 395.954V429.47C14.368 442.876 20.618 453.751 31.321 453.751H33.993C45.571 453.751 42.899 464.61 42.899 478.017V493.736C42.9 507.125 53.775 518 67.166 518H104.26C117.666 518 128.526 507.125 128.526 493.734V453.75V395.953C128.526 382.562 117.667 371.687 104.26 371.687L42.9 371.688Z" fill="#4B4B4B"/>
<path d="M344.322 167.438C332.9 167.438 323.025 175.407 320.619 186.563L307.056 249.094C304.65 260.25 294.759 268.219 283.337 268.219H131.385C117.994 268.219 107.119 279.094 107.119 292.485V310.86C107.119 324.251 117.994 335.126 131.385 335.126H136.369C149.76 335.126 160.635 346.001 160.635 359.407V371.485C160.635 384.876 171.51 395.751 184.901 395.751H373.026C384.417 395.751 394.276 387.813 396.729 376.657L436.042 196.876C437.62 189.72 435.854 182.22 431.245 176.501C426.636 170.751 419.682 167.438 412.323 167.438H344.322Z" fill="#4B4B4B"/>
<path d="M493.947 114.75C491.759 126.172 481.775 134.438 470.103 134.438H364.588C357.354 134.438 350.479 131.235 345.9 125.657C341.275 120.063 339.384 112.719 340.744 105.626L355.994 25.72C358.182 14.281 368.182 6 379.838 6H485.369C492.603 6 499.447 9.219 504.057 14.813C508.682 20.391 510.557 27.735 509.198 34.844L493.947 114.75Z" fill="#4B4B4B"/>
<path d="M554.5 48.866C553.833 48.4811 553.833 47.5189 554.5 47.134L596.5 22.8853C597.167 22.5004 598 22.9815 598 23.7513V72.2487C598 73.0185 597.167 73.4996 596.5 73.1147L554.5 48.866Z" fill="#7EC2C2"/>
<path d="M787 7H607C601.477 7 597 11.4772 597 17V68C597 73.5229 601.477 78 607 78H787C792.523 78 797 73.5229 797 68V17C797 11.4772 792.523 7 787 7Z" fill="#7EC2C2"/>
<path d="M646.18 30.66V33.93H658.06V30.66H646.18ZM645.19 39.81V55.17H648.58V39.81H645.19ZM645.97 27C645.16 30.63 643.54 34.05 641.26 36.18C642.1 36.66 643.57 37.8 644.2 38.43C646.57 35.94 648.49 31.98 649.54 27.69L645.97 27ZM652.45 38.1L649.36 38.52C650.38 45.93 652.18 51.9 656.56 55.11C657.07 54.18 658.18 52.77 658.99 52.11C655.09 49.59 653.29 44.19 652.45 38.1ZM656.35 39.51C655.12 41.01 652.93 42.99 651.4 44.13L653.5 46.17C655.09 45.09 657.22 43.35 658.87 41.76L656.35 39.51ZM630.73 31.59V34.92H643.18V31.59H630.73ZM635.38 37.86V41.13H640.27V37.86H635.38ZM635.26 27.03V32.67H638.71V27.03H635.26ZM639.1 37.86V38.52C638.98 47.76 638.83 50.88 638.41 51.6C638.17 51.93 637.93 52.05 637.54 52.05C637.06 52.05 636.28 52.02 635.35 51.9C635.83 52.8 636.16 54.15 636.22 55.11C637.42 55.14 638.59 55.14 639.34 54.99C640.15 54.84 640.72 54.57 641.29 53.73C642.04 52.62 642.19 49.02 642.34 39.27C642.34 38.85 642.34 37.86 642.34 37.86H639.1ZM633.79 33.72V39.6C633.79 43.62 633.37 48.72 630.04 53.1C630.94 53.67 632.11 54.57 632.71 55.29C636.43 50.43 636.94 44.55 636.94 39.63V33.72H633.79ZM654.73 34.23C652.09 36.33 646.69 38.52 642.43 39.39C643.21 40.17 644.08 41.46 644.56 42.39C648.79 41.1 654.31 38.58 657.34 36.12L654.73 34.23ZM666.244 49.517L666.126 50.6889C666.034 51.6264 665.857 52.5604 665.594 53.4908C665.338 54.4283 665.068 55.277 664.784 56.0369C664.507 56.7969 664.283 57.3935 664.113 57.8267H661.173C661.279 57.4077 661.425 56.8217 661.609 56.0689C661.794 55.3232 661.968 54.4851 662.131 53.5547C662.295 52.6243 662.398 51.6761 662.44 50.7102L662.494 49.517H666.244ZM694.09 28.32H689.74C689.8 28.71 689.92 29.73 690.01 30.93C690.13 32.52 690.13 38.28 690.13 40.14L693.88 41.4C693.85 39 693.79 32.88 693.88 30.9C693.91 30.42 694 28.83 694.09 28.32ZM677.11 32.07L677.2 35.67C681.73 35.43 687.7 35.19 693.16 35.19C697.57 35.19 700.63 35.28 702.49 35.37L702.55 31.83C700.87 31.8 696.31 31.83 693.25 31.83C689.5 31.83 681.58 32.07 677.11 32.07ZM693.37 40.95L690.55 40.17C691.51 43.74 690.28 44.94 688.87 44.94C687.64 44.94 686.53 44.07 686.53 42.72C686.53 41.13 687.7 40.32 688.87 40.32C690.19 40.32 691.24 41.25 691.24 43.2C691.24 48.45 687.25 50.46 682.15 51.57L685.33 54.75C692.65 52.68 694.96 47.73 694.96 43.8C694.96 40.08 692.89 37.17 688.93 37.17C685.69 37.17 682.93 39.39 682.93 42.78C682.93 46.44 685.81 48.27 688.12 48.27C691.57 48.27 693.37 45.84 693.37 40.95ZM711.1 29.67L711.22 33.57C711.91 33.45 712.84 33.39 713.65 33.33C715.27 33.21 719.41 33.06 720.94 33C719.47 34.32 716.32 36.84 714.64 38.22C712.9 39.69 709.27 42.75 707.14 44.43L709.87 47.25C713.08 43.62 716.05 41.16 720.67 41.16C724.18 41.16 726.88 42.99 726.88 45.72C726.88 48.93 724.3 50.85 719.23 50.85C717.4 50.85 716.17 50.1 716.17 48.99C716.17 48.21 716.92 47.52 718.03 47.52C719.8 47.52 720.94 49.02 721 51.18L724.51 50.73C724.42 47.43 722.14 44.67 718.03 44.67C714.85 44.67 712.63 46.89 712.63 49.32C712.63 52.35 715.78 54.24 719.95 54.24C727.21 54.24 730.81 50.49 730.81 45.75C730.81 41.4 726.94 38.22 721.84 38.22C720.91 38.22 720.01 38.28 718.99 38.55C720.91 37.05 724.06 34.41 725.68 33.27C726.34 32.76 727.06 32.34 727.75 31.89L725.83 29.19C725.47 29.31 724.78 29.43 723.52 29.52C721.81 29.67 715.42 29.82 713.8 29.82C712.96 29.82 711.94 29.76 711.1 29.67ZM747.19 44.79H751.09C750.61 40.65 757.18 40.11 757.18 35.73C757.18 31.74 754 29.7 749.65 29.7C746.44 29.7 743.8 31.17 741.88 33.39L744.34 35.64C745.81 34.11 747.31 33.27 749.14 33.27C751.51 33.27 752.95 34.29 752.95 36.12C752.95 39.03 746.56 40.08 747.19 44.79ZM749.17 52.8C750.67 52.8 751.81 51.69 751.81 50.13C751.81 48.57 750.67 47.49 749.17 47.49C747.64 47.49 746.5 48.57 746.5 50.13C746.5 51.69 747.61 52.8 749.17 52.8Z" fill="white"/>
<path d="M259.119 460.031C259.119 473.437 248.244 484.297 234.853 484.297H183.822C170.416 484.297 159.556 473.438 159.556 460.031V448.828C159.556 435.422 170.415 424.562 183.822 424.562H234.853C248.244 424.562 259.119 435.421 259.119 448.828V460.031Z" fill="#7EC2C2"/>
<path d="M36.9 365.688H32.634C19.243 365.688 8.36804 376.563 8.36804 389.954V423.47C8.36804 436.876 14.618 447.751 25.321 447.751H27.993C39.571 447.751 36.899 458.61 36.899 472.017V487.736C36.9 501.125 47.775 512 61.166 512H98.26C111.666 512 122.526 501.125 122.526 487.734V447.75V389.953C122.526 376.562 111.667 365.687 98.26 365.687L36.9 365.688Z" fill="#7EC2C2"/>
<path d="M338.322 161.438C326.9 161.438 317.025 169.407 314.619 180.563L301.056 243.094C298.65 254.25 288.759 262.219 277.337 262.219H125.385C111.994 262.219 101.119 273.094 101.119 286.485V304.86C101.119 318.251 111.994 329.126 125.385 329.126H130.369C143.76 329.126 154.635 340.001 154.635 353.407V365.485C154.635 378.876 165.51 389.751 178.901 389.751H367.026C378.417 389.751 388.276 381.813 390.729 370.657L430.042 190.876C431.62 183.72 429.854 176.22 425.245 170.501C420.636 164.751 413.682 161.438 406.323 161.438H338.322Z" fill="#7EC2C2"/>
<path d="M487.947 108.75C485.759 120.172 475.775 128.438 464.103 128.438H358.588C351.354 128.438 344.479 125.235 339.9 119.657C335.275 114.063 333.384 106.719 334.744 99.626L349.994 19.72C352.182 8.281 362.182 0 373.838 0H479.369C486.603 0 493.447 3.219 498.057 8.813C502.682 14.391 504.557 21.735 503.198 28.844L487.947 108.75Z" fill="#7EC2C2"/>
<path d="M378.5 87C385.404 87 391 75.1355 391 60.5C391 45.8645 385.404 34 378.5 34C371.596 34 366 45.8645 366 60.5C366 75.1355 371.596 87 378.5 87Z" fill="white"/>
<path d="M426.5 87C433.404 87 439 75.1355 439 60.5C439 45.8645 433.404 34 426.5 34C419.596 34 414 45.8645 414 60.5C414 75.1355 419.596 87 426.5 87Z" fill="white"/>
<path d="M382.5 75C386.09 75 389 68.2843 389 60C389 51.7157 386.09 45 382.5 45C378.91 45 376 51.7157 376 60C376 68.2843 378.91 75 382.5 75Z" fill="#7EC2C2"/>
<path d="M429.5 75C433.09 75 436 68.2843 436 60C436 51.7157 433.09 45 429.5 45C425.91 45 423 51.7157 423 60C423 68.2843 425.91 75 429.5 75Z" fill="#7EC2C2"/>
</svg>
